# xmcd
#
# Track frame offsets:
#	150
#	26695
#	43768
#	75089
#	110370
#	120067
#	147034
#	173551
#	200067
#	226105
#	244840
#
# Disc length: 3568 seconds
#
# Revision: 1
# Processed by: cddbd v1.5.2PL0 Copyright (c) Steve Scherf et al.
# Submitted via: audiograbber 1.83.01
#
DISCID=7b0dee0b
DTITLE=Waters, Winter and Cotton - Breakin' it UP, Breakin' it DOWN
DYEAR=1977
DGENRE=Blues
TTITLE0=Black Cat Bone/Dust My Broom
TTITLE1=Can't Be Satisfied
TTITLE2=Caledonia
TTITLE3=Dealin' With The Devil
TTITLE4=Rocket 88
TTITLE5=I Done Got Over It
TTITLE6=How Long Can I Fool Go Wrong
TTITLE7=Mama Talk To Your Daughter
TTITLE8=Love Her With A Feeling
TTITLE9=Trouble No More
TTITLE10=Got My Mojo Workin'
EXTD=
EXTT0=
EXTT1=
EXTT2=
EXTT3=
EXTT4=
EXTT5=
EXTT6=
EXTT7=
EXTT8=
EXTT9=
EXTT10=
PLAYORDER=
